 <svg  version="1.0" xmlns="http://www.w3.org/2000/svg"  width="900.000000pt" height="252.000000pt" viewBox="0 0 900.000000 252.000000"  preserveAspectRatio="xMidYMid meet">  <g transform="translate(0.000000,252.000000) scale(0.100000,-0.100000)" fill="#f2f2f2" stroke="none"> <path d="M6255 2505 c-8 -12 -46 -17 -180 -24 -174 -9 -209 -15 -202 -35 2 -7 71 -13 208 -18 275 -9 545 -52 697 -109 52 -20 174 -38 297 -43 303 -14 837 -105 1134 -192 21 -7 3 -19 -54 -37 -152 -50 -266 -88 -315 -107 -30 -12 -67 -25 -81 -30 -14 -4 -34 -12 -45 -17 -10 -6 -36 -17 -57 -26 -57 -25 -93 -41 -208 -96 -90 -42 -109 -56 -123 -85 -9 -19 -16 -43 -16 -55 0 -19 -10 -47 -49 -131 -22 -48 -112 -185 -161 -244 -23 -27 -39 -51 -36 -53 5 -6 40 12 58 30 7 7 63 46 123 86 61 40 121 81 135 90 14 10 32 20 40 24 8 4 29 16 45 26 17 11 48 29 70 41 22 12 65 36 95 53 167 93 430 210 630 282 82 29 107 37 135 45 17 5 53 16 80 24 168 51 277 79 382 97 102 18 133 45 67 60 -16 4 -51 16 -79 29 -57 25 -100 41 -200 75 -39 13 -81 28 -95 33 -49 19 -268 85 -385 115 -150 39 -184 47 -250 61 -295 63 -547 100 -745 111 -85 4 -118 9 -126 20 -17 23 -774 22 -789 0z"/> <path d="M6260 2205 c-8 -2 -76 -8 -150 -15 -295 -24 -618 -77 -890 -145 -136 -34 -188 -47 -235 -60 -27 -8 -59 -16 -70 -19 -11 -3 -45 -14 -75 -24 -46 -16 -51 -20 -33 -26 12 -4 48 0 81 9 33 8 73 15 88 15 16 0 63 7 104 17 60 13 135 16 380 17 322 1 376 -5 530 -55 134 -43 294 -152 334 -228 60 -111 60 -110 60 -246 0 -126 -14 -206 -52 -282 -57 -116 -88 -173 -109 -201 -13 -17 -21 -37 -18 -43 4 -6 60 43 130 114 121 122 264 250 400 358 135 107 421 305 485 335 8 4 31 17 50 29 80 49 275 151 390 203 108 49 163 72 175 72 7 0 25 10 39 21 31 24 21 39 -24 39 -14 0 -56 6 -95 14 -159 34 -401 67 -665 91 -144 13 -776 21 -830 10z"/> <path d="M545 1591 c-133 -34 -238 -94 -346 -201 -134 -131 -199 -275 -199 -438 0 -118 29 -179 109 -235 98 -68 209 -83 345 -48 70 18 105 46 106 83 0 10 6 32 14 50 26 59 56 137 56 142 0 13 -29 5 -76 -20 -100 -53 -212 -51 -268 6 -30 29 -31 34 -31 113 1 78 3 85 39 142 78 122 179 185 294 185 64 0 70 -2 116 -40 49 -41 66 -43 66 -10 0 11 6 34 14 52 8 18 22 53 31 78 10 25 22 55 27 66 17 36 -4 58 -75 77 -80 21 -132 21 -222 -2z"/> <path d="M1323 1590 c-69 -20 -164 -66 -232 -112 -80 -54 -193 -178 -228 -248 -48 -99 -54 -118 -69 -208 -22 -137 6 -228 94 -303 61 -52 120 -69 242 -69 213 0 402 98 539 279 139 183 185 364 126 492 -28 63 -46 86 -99 124 -88 66 -241 84 -373 45z m167 -237 c51 -30 65 -62 64 -143 -1 -68 -4 -81 -37 -135 -100 -166 -318 -250 -416 -162 -32 29 -61 94 -61 137 0 70 55 171 130 237 39 35 121 77 165 84 52 9 123 1 155 -18z"/> <path d="M4694 1591 c-94 -24 -224 -90 -304 -154 -63 -51 -152 -152 -171 -192 -5 -11 -13 -27 -18 -35 -12 -21 -36 -84 -55 -151 -21 -72 -20 -172 2 -226 26 -63 86 -130 145 -160 48 -25 61 -27 177 -27 104 -1 135 3 187 21 57 21 156 70 195 98 202 140 348 423 308 596 -25 113 -113 199 -236 232 -76 21 -139 20 -230 -2z m141 -243 c44 -30 75 -85 75 -137 0 -89 -108 -248 -201 -296 -127 -64 -226 -58 -285 20 -26 34 -29 46 -29 114 1 64 5 83 27 121 39 65 114 134 183 169 79 40 176 43 230 9z"/> <path d="M5634 1585 c-173 -42 -334 -231 -334 -393 0 -53 3 -61 33 -88 17 -17 51 -38 75 -47 103 -41 122 -51 144 -74 22 -23 22 -24 5 -56 -31 -56 -63 -72 -143 -72 -67 0 -73 2 -118 38 l-46 39 -33 -34 c-67 -70 -127 -139 -127 -148 0 -5 15 -20 33 -34 109 -82 297 -94 439 -28 148 70 268 238 268 377 0 77 -42 117 -180 171 -60 24 -80 42 -80 74 0 29 18 49 67 74 46 23 79 20 138 -13 l52 -29 34 41 c19 23 51 61 71 84 22 26 35 49 31 59 -7 19 -61 43 -138 60 -72 16 -123 16 -191 -1z"/> <path d="M2081 1566 c-7 -8 -16 -27 -21 -43 -5 -15 -18 -53 -30 -83 -12 -30 -25 -66 -30 -80 -5 -14 -18 -50 -30 -80 -42 -111 -52 -136 -60 -165 -4 -16 -18 -55 -30 -85 -12 -30 -25 -66 -30 -80 -8 -24 -34 -92 -67 -175 -8 -22 -16 -53 -17 -70 l-1 -30 100 4 c106 3 128 12 138 54 3 12 15 47 27 77 12 30 28 75 35 100 8 25 21 54 29 65 17 23 14 27 41 -75 9 -36 23 -88 31 -116 8 -28 14 -60 14 -72 0 -12 9 -26 19 -32 23 -12 240 -13 259 -1 15 9 11 25 -38 151 -12 30 -25 66 -30 80 -5 14 -16 43 -24 65 -22 57 -21 60 27 81 132 58 214 161 247 310 21 94 -16 162 -108 198 -58 22 -433 24 -451 2z m278 -194 c14 -10 27 -28 29 -40 4 -25 -28 -90 -56 -115 -23 -21 -127 -51 -143 -41 -14 8 -7 56 19 119 11 28 25 63 31 79 11 27 14 28 53 23 23 -3 53 -14 67 -25z"/> <path d="M2896 1561 c-9 -10 -21 -31 -26 -47 -4 -16 -18 -54 -30 -84 -12 -30 -25 -66 -30 -80 -5 -14 -18 -50 -30 -80 -12 -30 -25 -68 -30 -85 -5 -16 -18 -55 -30 -85 -12 -30 -25 -66 -30 -80 -5 -14 -18 -50 -30 -80 -12 -30 -25 -66 -30 -80 -5 -14 -18 -50 -30 -80 -13 -30 -23 -66 -24 -80 -1 -24 1 -25 79 -28 117 -5 142 2 154 41 5 18 17 50 25 72 8 22 28 76 44 120 16 44 33 79 38 78 8 -1 23 -50 59 -193 8 -30 16 -67 19 -81 7 -34 26 -39 162 -39 126 0 139 6 119 54 -7 17 -20 49 -28 71 -29 77 -45 120 -66 173 -12 29 -19 57 -15 63 4 6 30 22 58 34 115 52 181 130 222 265 36 118 -1 198 -109 234 -37 12 -90 16 -236 16 -171 0 -189 -2 -205 -19z m262 -181 c36 -16 42 -23 42 -50 0 -37 -29 -94 -61 -119 -27 -21 -123 -46 -139 -36 -14 9 -13 38 4 77 8 18 22 53 32 78 29 74 50 83 122 50z"/> <path d="M3705 1556 c-9 -13 -20 -36 -25 -52 -4 -16 -18 -54 -30 -84 -12 -30 -25 -70 -30 -88 -4 -18 -12 -38 -18 -45 -5 -7 -12 -23 -15 -37 -3 -14 -15 -50 -27 -80 -12 -30 -25 -66 -30 -80 -5 -14 -18 -50 -30 -80 -44 -115 -52 -136 -60 -169 -5 -18 -13 -38 -19 -44 -6 -6 -11 -20 -11 -32 0 -11 -7 -31 -16 -43 -34 -49 -23 -52 226 -52 230 0 270 5 270 35 0 14 19 63 44 115 22 46 13 50 -114 50 -67 0 -121 4 -125 10 -7 11 17 88 37 120 12 18 23 20 123 20 119 0 148 10 158 52 3 13 14 48 26 78 12 30 21 58 21 62 0 5 -48 8 -107 8 -60 0 -114 4 -121 9 -16 9 -8 48 20 104 l18 37 124 0 c137 0 149 5 166 72 5 18 16 52 24 76 9 24 14 48 11 53 -4 5 -106 9 -240 9 l-235 0 -15 -24z"/> <path d="M2660 425 c-14 -8 -33 -14 -42 -15 -10 0 -44 -26 -75 -58 -44 -44 -62 -72 -75 -113 -22 -69 -22 -91 -2 -132 47 -94 136 -129 237 -94 34 12 66 41 67 60 0 12 -44 7 -64 -8 -28 -21 -116 -19 -141 3 -40 34 -55 65 -55 118 0 60 34 115 102 164 33 24 51 30 94 30 33 0 58 -5 68 -15 21 -21 56 -19 56 3 0 27 -13 40 -53 57 -45 19 -84 19 -117 0z"/> <path d="M3050 423 c-57 -20 -124 -74 -158 -127 -22 -35 -26 -52 -26 -123 -1 -77 1 -83 29 -113 134 -141 395 -6 395 205 0 119 -122 200 -240 158z m150 -78 c30 -31 33 -39 33 -95 -1 -72 -29 -122 -95 -170 -33 -24 -51 -30 -95 -30 -65 0 -103 24 -129 82 -17 38 -17 42 0 91 21 62 37 83 95 125 37 27 53 32 101 32 51 0 59 -3 90 -35z"/> <path d="M3458 420 c-50 -27 -78 -69 -78 -117 0 -44 9 -55 83 -98 27 -15 54 -39 60 -52 9 -20 6 -29 -20 -61 -24 -30 -38 -38 -71 -40 -37 -3 -42 0 -57 27 -16 31 -50 42 -57 19 -16 -46 38 -98 100 -98 76 0 153 72 155 144 1 46 -22 77 -77 105 -26 13 -52 34 -58 47 -25 55 66 110 113 68 10 -9 25 -14 34 -11 23 10 18 43 -10 61 -40 26 -76 28 -117 6z"/> <path d="M1683 418 c-5 -7 -17 -49 -27 -93 -9 -44 -21 -98 -27 -120 -5 -22 -15 -71 -21 -109 -13 -85 -9 -89 90 -81 112 9 166 45 225 152 23 42 23 149 0 183 -36 53 -92 78 -174 79 -34 1 -60 -4 -66 -11z m153 -58 c41 -26 58 -74 49 -139 -9 -65 -70 -133 -139 -156 -26 -8 -57 -13 -68 -9 -17 5 -19 12 -13 57 4 29 11 68 16 87 6 19 14 61 19 93 5 32 14 65 21 73 17 20 76 17 115 -6z"/> <path d="M2055 406 c-9 -13 -20 -51 -25 -83 -9 -61 -22 -121 -47 -214 -25 -93 -24 -94 92 -94 86 0 100 2 103 17 3 15 -7 18 -70 20 l-73 3 1 40 c1 22 8 57 17 78 l16 37 64 0 c44 0 68 5 77 15 20 24 2 35 -59 35 -73 0 -82 9 -67 68 l12 47 83 3 c78 3 82 4 79 25 -3 21 -9 22 -95 25 -88 3 -93 2 -108 -22z"/> <path d="M3681 416 c-17 -20 -6 -36 27 -36 47 0 57 -13 45 -57 -19 -67 -43 -177 -44 -198 0 -11 -6 -37 -13 -57 -15 -41 -8 -62 19 -56 13 2 22 24 36 83 10 44 26 109 34 145 8 36 15 75 15 87 0 33 27 53 70 53 39 0 60 15 44 30 -5 4 -57 11 -115 14 -88 6 -108 5 -118 -8z"/> <path d="M4061 407 c-11 -13 -21 -26 -21 -30 0 -4 -19 -35 -43 -70 -24 -34 -47 -69 -51 -77 -12 -25 -29 -52 -80 -128 -37 -56 -46 -76 -37 -85 15 -15 41 0 57 32 6 12 21 33 33 47 20 23 27 25 98 22 l77 -3 13 -45 c7 -24 20 -51 28 -60 14 -13 17 -13 25 0 13 20 0 107 -45 297 -8 34 -15 73 -15 87 0 35 -13 39 -39 13z m13 -149 c15 -87 16 -83 -41 -86 -41 -2 -53 0 -53 11 0 20 71 128 80 122 4 -2 10 -24 14 -47z"/> <path d="M5053 417 c-50 -19 -108 -67 -145 -121 -30 -45 -33 -55 -33 -125 0 -66 3 -81 25 -109 31 -42 77 -62 141 -62 68 0 139 34 139 67 0 18 -25 17 -54 -3 -34 -21 -118 -22 -151 0 -15 10 -36 37 -46 61 -19 44 -19 45 1 101 44 127 168 190 264 133 31 -18 37 -19 42 -6 11 29 -1 50 -36 63 -44 16 -105 16 -147 1z"/> <path d="M4496 408 c-28 -99 -74 -316 -79 -373 -1 -14 4 -20 18 -20 16 0 23 14 40 73 11 41 23 74 27 75 8 2 48 -71 48 -88 0 -20 56 -79 68 -71 18 11 15 26 -18 94 -35 72 -37 88 -12 96 32 11 78 64 91 105 10 34 9 46 -4 71 -9 17 -27 35 -41 40 -37 15 -134 13 -138 -2z m120 -52 c26 -22 27 -25 14 -55 -7 -17 -26 -41 -41 -52 -31 -22 -75 -23 -73 -1 1 6 2 30 3 52 1 41 28 80 55 80 8 0 27 -11 42 -24z"/> <path d="M4803 413 c-7 -2 -13 -17 -13 -33 0 -15 -7 -47 -15 -70 -8 -23 -15 -55 -15 -70 0 -15 -7 -46 -15 -69 -20 -59 -24 -166 -6 -166 16 0 49 85 50 129 1 16 7 52 15 80 21 73 37 147 39 176 2 24 -15 34 -40 23z"/> <path d="M5472 411 c-13 -8 -30 -34 -49 -71 -4 -8 -26 -43 -50 -78 -24 -35 -43 -65 -43 -67 0 -2 -25 -41 -55 -86 -56 -83 -66 -109 -42 -109 18 0 50 31 76 74 27 43 38 46 126 38 l70 -7 6 -38 c7 -42 31 -73 48 -63 15 10 14 59 -5 141 -33 146 -44 201 -46 234 -3 36 -14 46 -36 32z m10 -172 c3 -29 4 -57 2 -61 -8 -12 -92 -10 -99 2 -9 14 64 122 78 117 7 -2 15 -28 19 -58z"/> </g> </svg> 