 <svg  version="1.0" xmlns="http://www.w3.org/2000/svg"  width="1224.000000pt" height="714.000000pt" viewBox="0 0 1224.000000 714.000000"  preserveAspectRatio="xMidYMid meet">  <g transform="translate(0.000000,714.000000) scale(0.100000,-0.100000)" fill="#f2f2f2" stroke="none"> <path d="M2561 6795 c-12 -36 -29 -77 -37 -93 -7 -15 -14 -35 -14 -44 0 -9 -4 -19 -9 -23 -5 -3 -13 -20 -17 -38 -3 -17 -12 -45 -20 -62 -30 -71 -42 -103 -59 -150 -10 -27 -24 -64 -31 -82 -8 -17 -14 -35 -14 -41 0 -5 -7 -23 -15 -38 -8 -16 -15 -36 -15 -45 0 -8 -4 -19 -8 -25 -5 -5 -26 -56 -46 -114 -21 -58 -42 -114 -46 -125 -22 -50 -51 -127 -80 -210 -18 -49 -38 -103 -45 -120 -7 -16 -21 -50 -30 -75 -10 -25 -24 -59 -31 -77 -8 -17 -14 -35 -14 -41 0 -10 -50 -140 -76 -199 -8 -17 -14 -37 -14 -45 0 -8 -4 -18 -8 -24 -5 -5 -19 -39 -31 -77 -12 -37 -29 -79 -37 -95 -7 -15 -14 -35 -14 -44 0 -9 -4 -19 -9 -23 -5 -3 -12 -19 -16 -36 -4 -17 -13 -42 -21 -57 -8 -15 -14 -32 -14 -39 0 -7 -6 -27 -14 -45 -30 -69 -44 -105 -61 -153 -10 -27 -24 -64 -31 -82 -8 -17 -14 -37 -14 -45 0 -8 -4 -18 -8 -24 -14 -16 -114 -285 -109 -291 3 -2 512 -3 1132 -3 l1128 0 24 -22 c13 -12 23 -25 23 -30 0 -5 12 -35 26 -66 29 -63 67 -148 91 -202 8 -19 28 -64 45 -100 16 -36 33 -74 38 -85 5 -11 25 -55 45 -98 62 -132 242 -117 -1391 -117 -917 0 -1422 -3 -1434 -10 -10 -5 -22 -24 -26 -42 -3 -18 -12 -46 -19 -63 -7 -16 -21 -50 -30 -75 -10 -25 -24 -59 -31 -77 -8 -17 -14 -38 -14 -46 0 -9 -4 -18 -9 -22 -5 -3 -12 -19 -16 -36 -4 -17 -13 -42 -21 -57 -8 -15 -14 -32 -14 -38 0 -7 -7 -25 -15 -40 -8 -16 -15 -37 -15 -46 0 -9 -4 -19 -9 -22 -4 -3 -18 -36 -30 -73 -13 -37 -29 -82 -37 -100 -8 -17 -14 -38 -14 -46 0 -9 -4 -18 -10 -22 -5 -3 -14 -20 -19 -38 -13 -40 -64 -183 -78 -217 -6 -14 -19 -45 -28 -70 -10 -25 -24 -59 -31 -77 -8 -17 -14 -36 -14 -42 0 -6 -6 -25 -14 -43 -8 -18 -22 -53 -31 -78 -10 -25 -24 -59 -31 -77 -8 -17 -14 -37 -14 -45 0 -8 -4 -18 -8 -23 -5 -6 -19 -40 -31 -78 -12 -37 -29 -79 -37 -95 -7 -15 -14 -35 -14 -44 0 -9 -4 -19 -9 -23 -5 -3 -12 -19 -16 -36 -4 -17 -13 -42 -21 -57 -8 -15 -14 -35 -14 -44 0 -9 -4 -19 -9 -23 -5 -3 -12 -19 -16 -36 -4 -17 -13 -42 -21 -57 -8 -15 -14 -34 -14 -42 0 -9 -4 -20 -8 -25 -5 -6 -19 -39 -32 -75 -12 -36 -29 -79 -36 -97 -8 -17 -14 -37 -14 -45 0 -8 -4 -18 -9 -23 -17 -17 -61 -159 -53 -167 4 -4 718 -7 1586 -6 1392 3 1580 5 1587 18 4 8 22 53 39 100 17 47 38 99 46 117 8 17 14 36 14 42 0 6 4 19 9 29 5 9 19 44 31 77 28 77 49 132 66 172 8 17 14 38 14 46 0 9 4 18 9 22 5 3 13 20 17 38 3 17 12 45 20 62 32 75 44 106 74 190 18 50 39 104 46 122 8 17 14 37 14 45 0 8 4 18 8 23 5 6 19 39 32 75 12 36 29 79 36 97 8 17 14 36 14 42 0 6 4 19 10 29 16 29 38 85 56 137 19 58 79 216 100 262 8 17 14 35 14 41 0 10 50 140 76 199 8 17 14 36 14 41 0 18 35 72 46 72 6 0 19 -19 29 -42 10 -24 30 -70 46 -103 42 -92 117 -259 146 -325 8 -19 27 -62 43 -95 15 -33 35 -78 45 -100 9 -22 30 -69 47 -105 16 -36 34 -74 38 -85 10 -22 46 -103 86 -192 14 -32 32 -74 41 -93 8 -19 33 -72 54 -116 21 -45 39 -84 39 -88 0 -9 36 -93 55 -126 7 -14 32 -68 55 -120 23 -52 50 -113 60 -135 20 -43 64 -142 85 -190 7 -16 29 -65 49 -107 l35 -78 1590 0 c1004 0 1592 4 1596 10 3 5 1 17 -4 27 -6 10 -20 41 -32 68 -11 28 -33 77 -49 110 -15 33 -35 78 -45 100 -9 22 -30 69 -47 105 -16 36 -33 74 -38 85 -5 11 -25 56 -45 100 -39 85 -56 125 -74 165 -5 14 -30 68 -54 120 -24 52 -47 105 -51 117 -4 12 -22 52 -40 90 -18 37 -46 97 -61 133 -27 63 -48 110 -115 255 -17 39 -35 79 -40 90 -5 11 -22 49 -38 85 -17 36 -40 88 -52 115 -29 67 -41 94 -89 198 -23 49 -41 91 -41 94 0 3 -17 42 -39 87 -21 44 -50 109 -65 142 -14 34 -46 105 -71 159 -25 53 -45 100 -45 104 0 5 -10 28 -23 52 -21 40 -34 70 -104 229 -13 30 -35 78 -49 105 -13 28 -24 54 -24 58 0 6 -14 39 -90 202 -15 33 -36 78 -45 100 -10 22 -30 67 -45 100 -16 33 -38 83 -50 110 -39 91 -52 119 -80 180 -15 33 -35 78 -45 100 -9 22 -29 67 -45 100 -15 33 -35 78 -45 100 -27 64 -50 115 -89 198 -20 43 -36 79 -36 81 0 2 -20 47 -45 100 -25 53 -45 98 -45 100 0 3 -16 39 -36 83 -57 125 -76 165 -94 208 -37 86 -71 161 -129 286 -11 25 -21 51 -21 56 0 5 -11 15 -25 21 -14 6 -25 16 -25 22 0 11 -23 67 -65 155 -30 62 -67 146 -101 228 -14 34 -30 67 -34 72 -4 6 -24 51 -45 100 -21 50 -56 129 -79 177 l-41 88 -1596 0 -1596 0 -22 -65z"/> <path d="M6025 6849 c-4 -5 0 -18 9 -28 9 -10 16 -21 16 -25 0 -8 6 -23 64 -149 20 -44 36 -82 36 -86 0 -5 12 -21 26 -37 21 -22 114 -201 114 -219 0 -3 16 -40 36 -82 19 -43 41 -91 49 -108 38 -86 69 -156 94 -210 16 -33 39 -85 51 -115 12 -30 26 -59 31 -65 5 -5 9 -16 9 -26 0 -9 9 -28 21 -43 l20 -26 1579 0 c868 0 1581 4 1584 9 3 4 -8 35 -24 67 -15 32 -36 77 -46 99 -9 22 -36 81 -59 130 -23 50 -45 100 -49 112 -4 12 -22 53 -41 92 -19 39 -46 99 -60 134 -15 34 -44 99 -66 144 -21 46 -39 85 -39 88 0 5 -34 80 -89 200 -15 33 -37 81 -49 108 l-22 47 -1594 0 c-1116 0 -1597 -3 -1601 -11z"/> <path d="M6730 5345 c0 -3 4 -13 9 -23 4 -9 15 -33 24 -52 8 -19 36 -79 61 -133 25 -54 46 -102 46 -107 0 -5 7 -21 15 -37 8 -15 26 -55 41 -88 14 -33 34 -78 44 -100 69 -150 100 -220 127 -282 9 -21 20 -45 25 -53 4 -8 11 -22 14 -30 4 -8 19 -43 35 -78 16 -34 29 -67 29 -73 0 -6 9 -24 21 -40 l20 -29 1575 0 c931 0 1574 4 1574 9 0 5 -6 22 -14 38 -8 15 -21 44 -30 63 -30 70 -68 156 -88 200 -12 25 -27 59 -34 75 -7 17 -27 62 -45 100 -17 39 -36 79 -40 90 -7 19 -45 103 -91 205 -12 25 -27 59 -34 75 -7 17 -31 68 -53 115 -21 47 -46 102 -55 123 l-15 37 -1580 0 c-870 0 -1581 -2 -1581 -5z"/> <path d="M7430 3774 c0 -8 23 -62 50 -120 28 -58 50 -107 50 -110 0 -3 11 -29 24 -57 39 -84 82 -178 106 -232 12 -27 33 -75 47 -105 14 -30 32 -71 40 -90 9 -19 29 -64 45 -100 56 -124 66 -145 84 -187 l18 -43 1583 0 c1443 0 1583 1 1583 16 0 9 -6 28 -14 42 -17 32 -65 136 -96 207 -11 28 -25 59 -30 70 -4 11 -22 49 -38 85 -17 36 -40 88 -52 115 -39 91 -52 119 -80 180 -15 33 -35 78 -45 100 -23 54 -73 162 -94 205 l-17 35 -1582 3 c-1430 2 -1582 1 -1582 -14z"/> </g> </svg> 