 <svg  version="1.0" xmlns="http://www.w3.org/2000/svg"  width="900.000000pt" height="342.000000pt" viewBox="0 0 900.000000 342.000000"  preserveAspectRatio="xMidYMid meet">  <g transform="translate(0.000000,342.000000) scale(0.100000,-0.100000)" fill="#f2f2f2" stroke="none"> <path d="M3720 2995 c-120 -29 -156 -42 -200 -74 -47 -34 -102 -90 -117 -118 -6 -12 -18 -35 -27 -50 -27 -51 -44 -97 -51 -140 -4 -24 -11 -45 -16 -49 -5 -3 -9 -325 -9 -783 0 -669 2 -784 15 -814 8 -20 15 -48 15 -62 0 -14 4 -33 9 -43 6 -9 20 -39 33 -67 48 -103 176 -210 275 -230 18 -4 35 -11 38 -16 8 -12 342 -12 350 0 3 5 20 12 38 16 62 13 123 50 188 114 58 58 78 88 114 176 25 58 38 177 42 375 l4 215 -168 -2 -168 -2 -5 -218 c-7 -274 -18 -306 -123 -353 -80 -37 -166 -21 -234 43 -43 41 -68 96 -63 142 1 11 4 325 6 697 3 460 1 684 -6 697 -14 27 12 124 46 168 14 19 38 39 53 45 14 5 34 14 43 19 10 5 41 9 70 9 73 -1 135 -33 173 -90 30 -45 30 -45 35 -228 l5 -183 163 0 c89 0 165 2 170 4 10 7 -3 319 -17 397 -20 109 -69 208 -136 274 -71 70 -158 112 -283 136 -127 24 -143 24 -262 -5z"/> <path d="M5145 3010 c-184 -35 -255 -64 -327 -135 -42 -42 -108 -136 -108 -155 0 -6 -6 -21 -12 -33 -40 -70 -41 -106 -45 -907 -3 -674 -1 -780 12 -813 8 -20 15 -49 15 -62 0 -14 4 -33 9 -43 6 -9 20 -39 33 -67 45 -96 186 -210 285 -230 18 -4 35 -11 38 -16 4 -5 80 -9 169 -9 126 0 170 3 192 15 16 8 36 15 45 15 38 0 164 83 210 137 52 62 98 179 111 283 14 120 6 1626 -9 1642 -7 6 -13 20 -13 30 0 27 -69 151 -105 190 -38 40 -111 93 -145 103 -14 4 -30 12 -36 17 -7 5 -36 13 -65 18 -30 6 -74 14 -99 20 -52 11 -98 11 -155 0z m171 -341 c41 -17 84 -60 84 -85 0 -7 6 -14 13 -16 9 -4 12 -171 14 -781 l3 -777 -22 -42 c-45 -86 -90 -113 -188 -113 -67 0 -80 3 -119 30 -44 30 -70 69 -90 136 -8 24 -11 260 -11 750 0 777 0 773 56 847 38 49 128 85 189 74 17 -3 48 -13 71 -23z"/> <path d="M630 1775 l0 -1215 185 0 c141 0 185 3 185 13 0 6 0 218 0 470 0 251 2 468 6 482 6 25 7 25 119 25 153 0 201 -26 250 -136 22 -50 23 -63 27 -415 4 -314 7 -369 22 -402 l16 -37 178 2 c171 3 177 4 173 23 -2 11 -7 180 -12 375 -9 414 -20 503 -74 608 -22 43 -89 111 -144 146 -24 15 -39 31 -35 35 5 4 37 29 72 55 71 54 109 113 144 221 21 65 22 88 22 315 -1 219 -3 252 -21 310 -39 121 -108 225 -167 251 -11 5 -28 13 -36 17 -104 59 -151 65 -552 69 l-358 4 0 -1216z m653 865 c53 -24 70 -41 96 -103 19 -44 21 -68 21 -267 0 -123 -4 -221 -9 -225 -5 -3 -12 -18 -16 -34 -8 -38 -58 -87 -113 -111 -35 -16 -66 -20 -147 -20 -98 0 -103 1 -109 23 -7 28 -8 705 0 734 6 20 12 21 120 21 91 1 123 -3 157 -18z"/> <path d="M2052 2982 c-10 -7 -12 -256 -10 -1213 l3 -1204 513 -3 512 -2 -2 162 -3 163 -322 3 c-248 2 -323 5 -324 15 -4 75 1 699 6 707 4 7 91 10 243 10 130 -1 243 -1 250 -1 10 1 12 37 10 164 l-3 162 -245 3 c-134 1 -248 6 -253 11 -7 7 -9 146 -7 592 l0 105 323 0 322 -1 0 165 0 165 -500 2 c-275 2 -506 -1 -513 -5z"/> <path d="M6065 2978 c-3 -7 -4 -553 -3 -1213 l3 -1200 180 0 180 0 3 444 c1 308 6 448 13 458 9 10 47 13 153 13 173 1 222 10 335 64 80 39 201 177 201 230 0 9 6 27 14 39 23 36 36 187 36 422 0 234 -11 367 -37 425 -40 92 -56 121 -94 163 -38 44 -120 107 -139 107 -4 0 -21 6 -37 14 -74 37 -169 46 -491 46 -241 0 -314 -3 -317 -12z m645 -339 c20 -9 49 -34 65 -55 l30 -39 0 -310 c0 -289 -1 -312 -19 -342 -40 -66 -64 -75 -204 -75 -70 0 -133 0 -139 1 -10 1 -13 91 -13 414 0 228 2 416 4 418 2 2 58 4 123 4 84 -1 128 -5 153 -16z"/> <path d="M7375 2978 c-3 -7 -4 -553 -2 -1213 l2 -1200 514 -3 c346 -1 517 1 521 8 10 16 12 293 2 307 -6 10 -89 13 -338 15 l-329 3 -3 350 c-2 320 -1 351 15 363 12 9 82 12 265 12 l248 0 -2 163 -3 162 -244 3 c-210 2 -247 5 -263 19 -17 15 -18 40 -18 337 0 185 4 327 10 336 8 13 54 15 334 11 l325 -3 5 23 c5 19 2 279 -3 312 0 4 -233 7 -516 7 -403 0 -517 -3 -520 -12z"/> </g> </svg> 